<svg version="1" xmlns="http://www.w3.org/2000/svg" width="25.988" height="29.922" viewBox="0 0 25.988 29.922"><path d="M0 0h25.988v29.922l-12.994-4.81L0 29.92V0zm20.154 17.895c-.24 0-.51-.006-.8-.018-.294-.014-.51-.05-.646-.116-.225-.1-.39-.26-.5-.467-.107-.21-.162-.492-.162-.854 0-.395.018-1.21.055-2.458.037-1.243.056-2.318.056-3.225 0-.858-.146-1.556-.44-2.088-.293-.536-.687-.943-1.185-1.224-.52-.29-1.107-.48-1.757-.572-.65-.093-1.365-.14-2.143-.14-.563 0-1.173.068-1.83.2-.66.132-1.24.318-1.747.56-.513.233-.95.528-1.306.885-.357.356-.536.76-.536 1.21 0 .52.175.944.52 1.27.347.322.858.485 1.534.485.476 0 .827-.043 1.057-.132.23-.088.438-.212.623-.373.138-.12.242-.283.314-.487.072-.205.11-.375.11-.51 0-.307-.058-.623-.17-.953-.113-.33-.18-.573-.206-.734.146-.104.336-.207.573-.308.237-.1.533-.15.886-.15.392 0 .71.088.95.264.24.176.418.392.53.65.105.225.173.5.206.83.032.328.048.594.048.795v1.155c-.467.224-1.207.48-2.22.767-1.013.284-1.88.56-2.604.825-.38.143-.727.3-1.044.47-.317.17-.597.38-.838.64-.265.28-.47.605-.615.97-.145.365-.217.81-.217 1.332 0 .91.33 1.637.99 2.19.657.55 1.454.824 2.387.824.627 0 1.115-.044 1.465-.132.35-.09.714-.223 1.09-.396.29-.137.562-.302.815-.493.253-.194.517-.427.79-.7h.073c.168.546.484.965.95 1.26.464.292 1.19.437 2.175.437.538 0 1.047-.064 1.527-.192s.896-.27 1.25-.42v-.878zm-6.02-1.302c-.218.265-.47.487-.755.668-.288.185-.65.273-1.096.273-.42 0-.77-.14-1.057-.42-.286-.282-.43-.738-.43-1.364 0-.476.084-.888.254-1.24.17-.35.404-.637.7-.86.284-.218.646-.425 1.09-.623.442-.197.89-.372 1.34-.525l-.05 4.093z"/></svg>