<svg version="1" xmlns="http://www.w3.org/2000/svg" width="74.318" height="23.041" viewBox="0 0 74.318 23.041"><path d="M0 1.46C0 .747.585.163 1.266.163h7.24c5.13 0 8.507 2.726 8.507 7.205v.064c0 4.9-4.09 7.43-8.928 7.43h-5.52v6.882c0 .714-.584 1.297-1.3 1.297-.68 0-1.265-.58-1.265-1.295V1.46zm8.182 11.067c3.767 0 6.234-2.012 6.234-4.998v-.067c0-3.245-2.435-4.932-6.104-4.932H2.565v9.996h5.617zm14.266-11.23c0-.713.584-1.297 1.266-1.297.714 0 1.3.584 1.3 1.298v20.446c0 .714-.585 1.297-1.3 1.297-.682 0-1.267-.58-1.267-1.295V1.298zm8.69.033c0-.68.584-1.265 1.266-1.265h.357c.586 0 .944.292 1.3.747L47.86 18.4V1.266C47.86.584 48.41 0 49.124 0c.682 0 1.234.584 1.234 1.266v20.51c0 .682-.488 1.2-1.17 1.2h-.13c-.552 0-.94-.324-1.332-.778l-14.09-18.01v17.588c0 .682-.552 1.265-1.267 1.265-.68 0-1.233-.58-1.233-1.263V1.33zm24.902-.032C56.04.584 56.622 0 57.303 0c.715 0 1.3.584 1.3 1.298v12.43L71.558.454c.29-.26.584-.455 1.007-.455.682 0 1.233.616 1.233 1.265 0 .357-.163.65-.422.91l-8.053 7.982 8.637 10.645c.228.292.357.553.357.94 0 .682-.584 1.298-1.3 1.298-.485 0-.81-.258-1.038-.582L63.503 11.91l-4.9 4.9v4.934c0 .714-.586 1.297-1.3 1.297-.683 0-1.267-.58-1.267-1.295V1.298z"/></svg>