<svg version="1" xmlns="http://www.w3.org/2000/svg" width="77.082" height="77.082" viewBox="0 0 77.082 77.082"><g fill-rule="evenodd" clip-rule="evenodd"><path d="M65.79 11.29C59.667 5.32 51.92.975 40.798 0h-4.516c-11.135.908-18.7 5.387-24.99 11.14C5.457 17.45.917 25.056 0 36.283V40.8c.974 11.12 5.32 18.866 11.292 24.99 6.116 5.977 13.873 10.315 24.99 11.292H40.8c11.123-.97 18.87-5.32 24.99-11.293 5.973-6.123 10.32-13.868 11.292-24.99v-4.52c-.976-11.118-5.315-18.874-11.292-24.99zm1.656 38.994c-1.485 3.725-3.81 6.733-6.172 9.334-5.2 5.725-11.983 9.263-21.077 9.935-9.562.708-17.493-3.293-22.733-8.128-5.575-5.146-9.24-11.627-9.937-21.077-.737-10.03 3.323-17.483 8.13-22.733 2.4-2.62 5.082-4.89 8.732-6.774 3.484-1.8 7.79-2.984 12.493-3.31 9.774-.677 17.85 3.66 22.885 8.28 5.1 4.684 9.35 12.004 9.935 21.077.325 5.047-.784 9.7-2.26 13.398z"/><path d="M27.7 33.723c3.54 1.512 7.782-1.902 6.023-6.02-.42-.99-2.194-2.508-4.215-2.41-2.35.115-3.606 1.428-4.065 2.71-1.1 3.076.87 5.127 2.258 5.72zm21.68 0c.948-.404 1.967-1.61 2.26-2.408 1.222-3.35-1.657-6.174-4.368-6.022-2.95.166-4.755 2.613-4.215 5.42.5 2.59 3.682 4.138 6.323 3.01zm9.486 4.817c-2.617.13-2.54 2.608-3.162 4.818C53.46 51.334 44.137 59.062 33.12 55.55c-6.03-1.92-10.225-6.847-11.742-12.344-.65-2.353-.728-5.088-3.914-4.516-3.365.604-2.323 3.973-1.506 6.624 1.273 4.13 3.493 7.734 5.872 10.087 3.42 3.385 8.58 6.346 14.603 6.778 8.623.617 14.634-2.59 18.97-6.926 1.93-1.93 3.044-3.725 4.366-6.473.847-1.766 2.852-6.304 2.104-8.43-.382-1.093-1.897-1.863-3.01-1.807z"/></g></svg>